<?xml version="1.0" encoding="utf-8"?>
<!-- Generator: Adobe Illustrator 16.0.0, SVG Export Plug-In . SVG Version: 6.00 Build 0)  -->
<!DOCTYPE svg PUBLIC "-//W3C//DTD SVG 1.1//EN" "http://www.w3.org/Graphics/SVG/1.1/DTD/svg11.dtd">
<svg version="1.1" id="Layer_1" xmlns="http://www.w3.org/2000/svg" xmlns:xlink="http://www.w3.org/1999/xlink" x="0px" y="0px"
	 width="100px" height="100px" viewBox="0 0 100 100" enable-background="new 0 0 100 100" xml:space="preserve">
<path fill="#FFFFFF" d="M86.254,48.353l-2.236-6.358L59.881,66.131c-2.357,2.363-5.5,3.662-8.838,3.662
	c-3.337,0-6.479-1.299-8.836-3.662L24.499,48.424c-2.363-2.358-3.663-5.5-3.663-8.837s1.3-6.479,3.663-8.837
	c2.358-2.362,5.5-3.662,8.836-3.662c3.338,0,6.479,1.3,8.837,3.662l8.87,8.867l23.767-23.765l-1.601-4.542l-0.737-4.408
	C72.01,4.077,70.146,1.735,67.5,0.639c-2.657-1.104-5.623-0.762-7.953,0.909L47.969,9.93L36.261,1.526
	c-2.35-1.658-5.324-1.987-7.966-0.879c-2.625,1.101-4.471,3.438-4.933,6.246l-2.267,14.111L6.899,23.362
	c-2.82,0.463-5.162,2.326-6.262,4.971c-1.1,2.654-0.758,5.629,0.913,7.958L9.929,47.87L1.525,59.576
	c-1.654,2.35-1.987,5.33-0.879,7.967c1.104,2.625,3.437,4.471,6.245,4.934l14.112,2.271l2.358,14.189
	c0.458,2.814,2.309,5.152,4.933,6.254c2.646,1.107,5.625,0.779,7.996-0.9l11.579-8.381l11.678,8.381
	c1.43,1.021,3.092,1.547,4.779,1.547c1.07,0,2.145-0.209,3.174-0.637c2.65-1.102,4.51-3.441,4.973-6.256l2.271-14.109l14.189-2.359
	c2.815-0.463,5.149-2.309,6.254-4.934c1.107-2.637,0.778-5.617-0.898-7.994L86.254,48.353z"/>
<path fill="#FFFFFF" d="M51.043,61.461c-1.066,0-2.133-0.408-2.945-1.221L30.39,42.533c-1.629-1.629-1.629-4.263,0-5.891
	c1.629-1.63,4.262-1.63,5.892,0l14.761,14.76L92.887,9.559c1.629-1.628,4.262-1.628,5.893,0c1.63,1.629,1.63,4.263,0,5.892
	l-44.791,44.79C53.176,61.053,52.109,61.461,51.043,61.461z"/>
</svg>
