<svg xmlns="http://www.w3.org/2000/svg" width="67.629" height="67.537" viewBox="0 0 67.629 67.537">
  <g id="email_icon" transform="translate(-5.774 -4.786)">
    <g id="Group_6" data-name="Group 6">
      <path id="Path_18" data-name="Path 18" d="M6.894,45.9c.7,0,.979.47,1.178,1.056.5,1.487.924,3.011,1.559,4.439A32.184,32.184,0,0,0,30.822,69.943c.191.058.387.1.572.176a1.139,1.139,0,0,1,.768,1.488,1.156,1.156,0,0,1-1.48.661A34.819,34.819,0,0,1,5.9,47.618a2.7,2.7,0,0,1-.126-.581A1.083,1.083,0,0,1,6.894,45.9Z" fill="#008e85"/>
      <path id="Path_19" data-name="Path 19" d="M48.058,4.786c.724.208,1.523.4,2.3.667A34.879,34.879,0,0,1,73.18,29.562c.229.844-.017,1.453-.678,1.649-.681.2-1.243-.131-1.481-.984a32.889,32.889,0,0,0-3.555-8.377A32.38,32.38,0,0,0,48.283,7.2a5.306,5.306,0,0,1-.844-.3,1.024,1.024,0,0,1-.553-1.261A1.139,1.139,0,0,1,48.058,4.786Z" fill="#008e85"/>
      <path id="Path_20" data-name="Path 20" d="M6.582,31.274c-.458,0-.967-.735-.749-1.546A34.862,34.862,0,0,1,28.27,5.6c.8-.281,1.618-.51,2.435-.734a1.147,1.147,0,0,1,1.465.693,1.122,1.122,0,0,1-.794,1.471c-1.825.666-3.726,1.171-5.474,2a32.02,32.02,0,0,0-17.748,20.9C7.959,30.613,7.747,31.252,6.582,31.274Z" fill="#008e85"/>
      <path id="Path_21" data-name="Path 21" d="M73.4,46.817c-.326,1.1-.55,2.019-.868,2.907a34.557,34.557,0,0,1-21.41,21.689c-.84.312-1.711.542-2.57.795s-1.469,0-1.666-.644c-.217-.715.14-1.232,1.022-1.543,1.692-.6,3.438-1.077,5.059-1.83A32.024,32.024,0,0,0,70.754,47.765a9.192,9.192,0,0,1,.464-1.338.932.932,0,0,1,1.271-.477A3.843,3.843,0,0,1,73.4,46.817Z" fill="#008e85"/>
    </g>
    <g id="Group_8" data-name="Group 8">
      <g id="Group_7" data-name="Group 7">
        <path id="Path_27" data-name="Path 27" d="M52.383,26.692h-25.7a2.744,2.744,0,0,0-2.74,2.74V47.7a2.744,2.744,0,0,0,2.74,2.74h25.7a2.745,2.745,0,0,0,2.74-2.74V29.433A2.745,2.745,0,0,0,52.383,26.692Zm-.378,1.827L39.591,40.934,27.07,28.519ZM25.769,47.324V29.8l8.8,8.724Zm1.292,1.293,8.8-8.806,3.085,3.06a.914.914,0,0,0,1.291,0l3.008-3.007,8.757,8.757ZM53.3,47.324l-8.758-8.757L53.3,29.811Z" fill="#008e85"/>
      </g>
    </g>
  </g>
</svg>
