<svg xmlns="http://www.w3.org/2000/svg" width="67.63" height="67.537" viewBox="0 0 67.63 67.537">
  <g id="phone_icon" transform="translate(-5.807 -4.65)">
    <g id="Group_9" data-name="Group 9">
      <path id="Path_31" data-name="Path 31" d="M6.926,45.759c.7,0,.979.47,1.178,1.056.5,1.487.924,3.011,1.559,4.439A32.184,32.184,0,0,0,30.854,69.807c.191.058.387.1.572.176a1.139,1.139,0,0,1,.768,1.488,1.156,1.156,0,0,1-1.48.661,34.816,34.816,0,0,1-24.78-24.65,2.7,2.7,0,0,1-.126-.581A1.083,1.083,0,0,1,6.926,45.759Z" fill="#008e85"/>
      <path id="Path_32" data-name="Path 32" d="M48.091,4.65c.724.208,1.523.4,2.3.667A34.879,34.879,0,0,1,73.213,29.426c.229.844-.017,1.453-.678,1.649-.681.2-1.243-.131-1.481-.984A32.889,32.889,0,0,0,67.5,21.714,32.384,32.384,0,0,0,48.316,7.068a5.306,5.306,0,0,1-.844-.3,1.024,1.024,0,0,1-.553-1.261A1.14,1.14,0,0,1,48.091,4.65Z" fill="#008e85"/>
      <path id="Path_33" data-name="Path 33" d="M6.614,31.138c-.458,0-.967-.735-.749-1.546A34.861,34.861,0,0,1,28.3,5.468c.8-.281,1.618-.51,2.435-.734a1.147,1.147,0,0,1,1.465.693A1.122,1.122,0,0,1,31.409,6.9c-1.825.667-3.726,1.171-5.474,2A32.02,32.02,0,0,0,8.187,29.8C7.992,30.478,7.779,31.116,6.614,31.138Z" fill="#008e85"/>
      <path id="Path_34" data-name="Path 34" d="M73.437,46.682c-.326,1.1-.55,2.019-.868,2.907a34.557,34.557,0,0,1-21.41,21.689c-.84.312-1.711.542-2.57.795s-1.469,0-1.666-.644c-.217-.715.14-1.232,1.022-1.543,1.692-.6,3.438-1.077,5.059-1.83A32.024,32.024,0,0,0,70.788,47.63a9.192,9.192,0,0,1,.464-1.338.932.932,0,0,1,1.271-.477C72.9,45.989,73.159,46.407,73.437,46.682Z" fill="#008e85"/>
    </g>
    <g id="Group_11" data-name="Group 11">
      <g id="Group_10" data-name="Group 10">
        <path id="Path_40" data-name="Path 40" d="M49.772,44.086a3.737,3.737,0,0,0-2.716-1.244,3.868,3.868,0,0,0-2.748,1.236L41.77,46.609c-.209-.113-.417-.217-.619-.322-.289-.145-.562-.281-.795-.426a27.6,27.6,0,0,1-6.612-6.025,16.392,16.392,0,0,1-2.169-3.421c.659-.6,1.27-1.229,1.863-1.833.226-.225.45-.457.675-.682a3.686,3.686,0,0,0,0-5.561l-2.192-2.192c-.249-.249-.507-.507-.746-.764-.483-.5-.989-1.012-1.513-1.494a3.8,3.8,0,0,0-2.69-1.181,3.928,3.928,0,0,0-2.73,1.181l-.017.016L21.494,26.66A5.877,5.877,0,0,0,19.75,30.4a14.109,14.109,0,0,0,1.028,5.961,34.608,34.608,0,0,0,6.146,10.252,37.822,37.822,0,0,0,12.59,9.857,19.609,19.609,0,0,0,7.068,2.088c.17.008.347.018.506.018a6.054,6.054,0,0,0,4.636-1.994c.008-.016.025-.023.033-.039a18.333,18.333,0,0,1,1.4-1.455c.346-.328.7-.674,1.044-1.035a4.008,4.008,0,0,0,1.213-2.779,3.861,3.861,0,0,0-1.235-2.756Zm2.877,8.459c-.009,0-.009.008,0,0-.313.338-.636.643-.981.982a20.618,20.618,0,0,0-1.55,1.6A3.874,3.874,0,0,1,47.1,56.41c-.12,0-.249,0-.37-.008a17.411,17.411,0,0,1-6.266-1.881A35.657,35.657,0,0,1,28.6,45.234,32.637,32.637,0,0,1,22.818,35.6a11.51,11.51,0,0,1-.9-5.03,3.693,3.693,0,0,1,1.109-2.386l2.74-2.739a1.827,1.827,0,0,1,1.222-.571,1.721,1.721,0,0,1,1.172.563l.024.024c.489.458.956.933,1.445,1.438.249.258.507.515.764.78l2.193,2.192a1.533,1.533,0,0,1,0,2.49c-.233.232-.458.466-.691.69-.674.691-1.316,1.334-2.017,1.961-.016.016-.031.024-.04.04a1.641,1.641,0,0,0-.418,1.823l.024.072a17.568,17.568,0,0,0,2.595,4.234l.008.008a29.481,29.481,0,0,0,7.136,6.492,10.72,10.72,0,0,0,.986.537c.29.145.563.283.8.428.032.016.065.039.1.055a1.639,1.639,0,0,0,2.016-.354L45.828,45.6a1.819,1.819,0,0,1,1.213-.6,1.641,1.641,0,0,1,1.158.586.145.145,0,0,1,.016.018l4.426,4.426A1.589,1.589,0,0,1,52.649,52.545Z" fill="#008e85"/>
        <path id="Path_41" data-name="Path 41" d="M40.26,29.561a10.333,10.333,0,0,1,8.419,8.419,1.078,1.078,0,0,0,1.069.9,1.156,1.156,0,0,0,.185-.016,1.085,1.085,0,0,0,.892-1.252A12.5,12.5,0,0,0,40.638,27.423a1.09,1.09,0,0,0-1.253.884A1.073,1.073,0,0,0,40.26,29.561Z" fill="#008e85"/>
        <path id="Path_42" data-name="Path 42" d="M57.709,37.3A20.585,20.585,0,0,0,40.934,20.522a1.083,1.083,0,1,0-.352,2.137,18.391,18.391,0,0,1,14.99,14.992,1.078,1.078,0,0,0,1.068.9,1.428,1.428,0,0,0,.185-.016A1.063,1.063,0,0,0,57.709,37.3Z" fill="#008e85"/>
      </g>
    </g>
  </g>
</svg>
