<svg xmlns="http://www.w3.org/2000/svg" xmlns:xlink="http://www.w3.org/1999/xlink" width="885.048" height="884.463" viewBox="0 0 885.048 884.463">
  <defs>
    <linearGradient id="linear-gradient" x1="0.5" y1="1.001" x2="0.5" y2="0.001" gradientUnits="objectBoundingBox">
      <stop offset="0" stop-color="#008e85"/>
      <stop offset="1" stop-color="#81cecf"/>
    </linearGradient>
    <linearGradient id="linear-gradient-2" x1="0.5" y1="1" x2="0.5" gradientUnits="objectBoundingBox">
      <stop offset="0.003" stop-color="#0b0d0d"/>
      <stop offset="1" stop-color="#717476"/>
    </linearGradient>
    <linearGradient id="linear-gradient-3" x1="0.5" y1="0.999" x2="0.5" gradientUnits="objectBoundingBox">
      <stop offset="0" stop-color="#fff"/>
      <stop offset="0.04" stop-color="#fafafa"/>
      <stop offset="0.088" stop-color="#ebebec"/>
      <stop offset="0.141" stop-color="#d2d3d5"/>
      <stop offset="0.17" stop-color="#c1c3c5"/>
      <stop offset="0.488" stop-color="#929496"/>
      <stop offset="0.718" stop-color="#6e7072"/>
      <stop offset="1"/>
    </linearGradient>
    <linearGradient id="linear-gradient-4" x1="0.263" y1="0.946" x2="0.735" y2="0.057" gradientUnits="objectBoundingBox">
      <stop offset="0.003" stop-color="#231f20"/>
      <stop offset="0.338" stop-color="#231f20"/>
      <stop offset="0.448" stop-color="#454446"/>
      <stop offset="0.573" stop-color="#717275"/>
      <stop offset="0.757" stop-color="#6e7072"/>
      <stop offset="0.88" stop-color="#8a8c8e"/>
      <stop offset="1"/>
    </linearGradient>
    <linearGradient id="linear-gradient-5" x1="0.498" y1="1.002" x2="0.498" y2="-0.002" gradientUnits="objectBoundingBox">
      <stop offset="0.003" stop-color="#0c0c0c"/>
      <stop offset="1" stop-color="#56575a"/>
    </linearGradient>
  </defs>
  <g id="logo-without-shadow" transform="translate(-134.147 -261.544)">
    <g id="Group_76" data-name="Group 76" transform="translate(134.147 251.6)">
      <path id="Path_58" data-name="Path 58" d="M754.417,754.569v39.778c0,121.087-98.274,218.776-218.776,218.776h0c-121.672,0-220.531-98.859-220.531-220.531V466.183A113.59,113.59,0,0,0,201.628,352.7h0c-61.421,0-111.143,49.722-111.728,111.143V796.1c0,242.759,198.3,441.061,441.062,441.061h5.85c242.174,0,438.137-195.962,438.137-438.137V749.3A107.723,107.723,0,0,0,867.315,641.672h0C805.309,642.257,754.417,692.563,754.417,754.569Z" transform="translate(-89.9 -342.756)" fill="url(#linear-gradient)"/>
      <g id="Group_75" data-name="Group 75" transform="translate(613.392)">
        <g id="Group_12" data-name="Group 12" transform="translate(53.466 53.817)">
          <g id="Group_9" data-name="Group 9">
            <path id="Path_7" data-name="Path 7" d="M203.9,377.8s0,58.5,60.836,86.574c0,0,47.967,22.813,94.179,0,0,0,56.741-21.059,59.666-86.574,0,0,4.68,62.006-59.081,90.669,0,0-43.872,22.813-96.519-.585C262.981,467.884,206.24,445.07,203.9,377.8Z" transform="translate(-203.9 -274.847)" fill="#fff"/>
            <ellipse id="Ellipse_1" data-name="Ellipse 1" cx="107.048" cy="99.444" rx="107.048" ry="99.444" transform="translate(0.585)" fill="#fff"/>
            <path id="Path_8" data-name="Path 8" d="M204,398.094c2.925,52.647,49.722,94.179,107.048,94.179S415.172,450.155,418.1,397.509C307.538,347.2,213.944,392.829,204,398.094Z" transform="translate(-203.415 -292.8)" fill="url(#linear-gradient-2)"/>
            <ellipse id="Ellipse_2" data-name="Ellipse 2" cx="82.48" cy="77.215" rx="82.48" ry="77.215" transform="translate(24.568 15.794)" fill="url(#linear-gradient-3)"/>
            <ellipse id="Ellipse_3" data-name="Ellipse 3" cx="80.14" cy="73.705" rx="80.14" ry="73.705" transform="translate(27.493 18.719)" fill="url(#linear-gradient-4)"/>
            <ellipse id="Ellipse_4" data-name="Ellipse 4" cx="77.8" cy="72.535" rx="77.8" ry="72.535" transform="translate(29.833 19.304)" fill="#ec1c24"/>
            <path id="Path_9" data-name="Path 9" d="M204.38,383.619s-11.7,87.159,83.065,110.558c0,0,60.836,16.379,108.8-33.928,0,0,30.418-33.343,23.4-83.65,0,0,8.774,81.31-80.725,105.293,0,0-60.251,19.3-109.388-33.343C228.949,448.55,204.965,424.567,204.38,383.619Z" transform="translate(-203.795 -280.666)" fill="url(#linear-gradient-5)"/>
            <path id="Path_10" data-name="Path 10" d="M286.339,462.254c43.287,0,77.8-32.758,77.8-72.535v-5.265c-89.5-26.323-153.26,1.17-153.26,1.17l-1.755,1.17v2.925C207.954,429.5,243.051,462.254,286.339,462.254Z" transform="translate(-178.705 -297.88)" fill="#c5161d"/>
            <g id="Group_8" data-name="Group 8" transform="translate(66.686 34.659)">
              <g id="Group_7" data-name="Group 7">
                <path id="Path_11" data-name="Path 11" d="M301.29,404l-47.967-28.078-13.454-7.6a16.384,16.384,0,0,0-16.379,0,15.753,15.753,0,0,0-8.19,14.039v71.95a15.752,15.752,0,0,0,8.19,14.039,13.428,13.428,0,0,0,8.189,2.34,14.621,14.621,0,0,0,8.19-2.34l10.529-6.435,14.624-8.774,36.268-21.059a15.752,15.752,0,0,0,8.19-14.039A18.5,18.5,0,0,0,301.29,404Zm-6.435,16.964-38.608,22.813-5.264,2.925-17.549,10.529a4.567,4.567,0,0,1-2.925,0c-.585,0-1.755-1.17-1.755-2.925V382.357c0-1.755,1.17-2.34,1.755-2.924a2.562,2.562,0,0,1,1.755-.585,2.149,2.149,0,0,1,1.755.585l19.3,11.114,42.118,24.569a3.993,3.993,0,0,1,1.755,2.925C296.025,418.625,296.025,419.795,294.855,420.965Z" transform="translate(-215.3 -366.125)" fill="#fff"/>
              </g>
              <path id="Path_12" data-name="Path 12" d="M265.022,426.2l-25.153,14.624a13.43,13.43,0,0,1-8.189,2.34,14.622,14.622,0,0,1-8.189-2.34,15.752,15.752,0,0,1-8.189-14.039V371.8l12.869,14.039v40.947c0,1.755,1.17,2.34,1.755,2.925.585,0,1.755.585,2.925,0l22.813-13.454Z" transform="translate(-215.3 -338.603)" fill="#fff"/>
              <path id="Path_13" data-name="Path 13" d="M280.281,409.917a15.753,15.753,0,0,1-8.189,14.039l-36.268,21.059L221.2,453.789l.585-15.209,5.264-2.925,38.608-22.813a3.993,3.993,0,0,0,1.755-2.925,3.184,3.184,0,0,0-1.755-2.925L223.54,382.424l.585-14.624,47.967,28.078A15.753,15.753,0,0,1,280.281,409.917Z" transform="translate(-186.687 -358.002)" fill="#fff"/>
            </g>
          </g>
        </g>
      </g>
    </g>
  </g>
</svg>
